<mxfile host="Electron" modified="2023-05-27T15:39:52.224Z" agent="Mozilla/5.0 (Macintosh; Intel Mac OS X 10_15_7) AppleWebKit/537.36 (KHTML, like Gecko) draw.io/21.2.1 Chrome/112.0.5615.87 Electron/24.1.2 Safari/537.36" etag="65aFkyPaMGxeygtFBe0r" version="21.2.1" type="device">
  <diagram name="Page-1" id="H1nZVYqxkzLZFgEqRADx">
    <mxGraphModel dx="177" dy="3567" grid="1" gridSize="10" guides="1" tooltips="1" connect="1" arrows="1" fold="1" page="1" pageScale="1" pageWidth="850" pageHeight="1100" math="0" shadow="0">
      <root>
        <mxCell id="0" />
        <mxCell id="1" parent="0" />
        <mxCell id="AsBp8XiL8Dx4Y6rQVwFH-6113" value="R, W: 126, H: 118, ORDER: 17, GC: {55, 38, 33, 5, 28, 17, 26, 3, 25, 63, 9, 23, 15, 8, 7, 32, 31} " style="text;html=1;strokeColor=none;fillColor=none;align=center;verticalAlign=middle;whiteSpace=wrap;rounded=0;flipV=1;" parent="1" vertex="1">
          <mxGeometry x="2670" width="1260" height="30" as="geometry" />
        </mxCell>
        <mxCell id="mKbq_NIWzUgNMmpsChsE-4" value="" style="group;flipV=1;" vertex="1" connectable="0" parent="1">
          <mxGeometry x="2660" y="50" width="1270" height="3270" as="geometry" />
        </mxCell>
        <mxCell id="AsBp8XiL8Dx4Y6rQVwFH-6167" value="R, W: 126, H: 93, ORDER: 17, GC: {38, 21, 25, 17, 4, 42, 29, 12, 11, 19, 3, 8, 55, 39, 2, 5, 32} " style="text;html=1;strokeColor=none;fillColor=none;align=center;verticalAlign=middle;whiteSpace=wrap;rounded=0;" parent="mKbq_NIWzUgNMmpsChsE-4" vertex="1">
          <mxGeometry x="5" y="1970" width="1260" height="30" as="geometry" />
        </mxCell>
        <mxCell id="AsBp8XiL8Dx4Y6rQVwFH-7648" value="R, W: 126, H: 92, ORDER: 18, GC: {43, 37, 46, 6, 22, 9, 49, 13, 15, 27, 33, 2, 17, 8, 14, 3, 19, 11} " style="text;html=1;strokeColor=none;fillColor=none;align=center;verticalAlign=middle;whiteSpace=wrap;rounded=0;" parent="mKbq_NIWzUgNMmpsChsE-4" vertex="1">
          <mxGeometry y="940" width="1260" height="30" as="geometry" />
        </mxCell>
        <mxCell id="mKbq_NIWzUgNMmpsChsE-1" value="" style="group" vertex="1" connectable="0" parent="mKbq_NIWzUgNMmpsChsE-4">
          <mxGeometry x="10" y="2090" width="1260" height="1180" as="geometry" />
        </mxCell>
        <mxCell id="761dnnyQ54j-Cl0NHfQN-6114" value="55" style="rounded=0;whiteSpace=wrap;html=1;" parent="mKbq_NIWzUgNMmpsChsE-1" vertex="1">
          <mxGeometry width="550" height="550" as="geometry" />
        </mxCell>
        <mxCell id="761dnnyQ54j-Cl0NHfQN-6115" value="38" style="rounded=0;whiteSpace=wrap;html=1;" parent="mKbq_NIWzUgNMmpsChsE-1" vertex="1">
          <mxGeometry x="550" width="380" height="380" as="geometry" />
        </mxCell>
        <mxCell id="761dnnyQ54j-Cl0NHfQN-6116" value="33" style="rounded=0;whiteSpace=wrap;html=1;" parent="mKbq_NIWzUgNMmpsChsE-1" vertex="1">
          <mxGeometry x="930" width="330" height="330" as="geometry" />
        </mxCell>
        <mxCell id="761dnnyQ54j-Cl0NHfQN-6117" value="5" style="rounded=0;whiteSpace=wrap;html=1;" parent="mKbq_NIWzUgNMmpsChsE-1" vertex="1">
          <mxGeometry x="930" y="330" width="50" height="50" as="geometry" />
        </mxCell>
        <mxCell id="761dnnyQ54j-Cl0NHfQN-6118" value="28" style="rounded=0;whiteSpace=wrap;html=1;" parent="mKbq_NIWzUgNMmpsChsE-1" vertex="1">
          <mxGeometry x="980" y="330" width="280" height="280" as="geometry" />
        </mxCell>
        <mxCell id="761dnnyQ54j-Cl0NHfQN-6119" value="17" style="rounded=0;whiteSpace=wrap;html=1;" parent="mKbq_NIWzUgNMmpsChsE-1" vertex="1">
          <mxGeometry x="550" y="380" width="170" height="170" as="geometry" />
        </mxCell>
        <mxCell id="761dnnyQ54j-Cl0NHfQN-6120" value="26" style="rounded=0;whiteSpace=wrap;html=1;" parent="mKbq_NIWzUgNMmpsChsE-1" vertex="1">
          <mxGeometry x="720" y="380" width="260" height="260" as="geometry" />
        </mxCell>
        <mxCell id="761dnnyQ54j-Cl0NHfQN-6121" value="3" style="rounded=0;whiteSpace=wrap;html=1;" parent="mKbq_NIWzUgNMmpsChsE-1" vertex="1">
          <mxGeometry x="980" y="610" width="30" height="30" as="geometry" />
        </mxCell>
        <mxCell id="761dnnyQ54j-Cl0NHfQN-6122" value="25" style="rounded=0;whiteSpace=wrap;html=1;" parent="mKbq_NIWzUgNMmpsChsE-1" vertex="1">
          <mxGeometry x="1010" y="610" width="250" height="250" as="geometry" />
        </mxCell>
        <mxCell id="761dnnyQ54j-Cl0NHfQN-6123" value="63" style="rounded=0;whiteSpace=wrap;html=1;" parent="mKbq_NIWzUgNMmpsChsE-1" vertex="1">
          <mxGeometry y="550" width="630" height="630" as="geometry" />
        </mxCell>
        <mxCell id="761dnnyQ54j-Cl0NHfQN-6124" value="9" style="rounded=0;whiteSpace=wrap;html=1;" parent="mKbq_NIWzUgNMmpsChsE-1" vertex="1">
          <mxGeometry x="630" y="550" width="90" height="90" as="geometry" />
        </mxCell>
        <mxCell id="761dnnyQ54j-Cl0NHfQN-6125" value="23" style="rounded=0;whiteSpace=wrap;html=1;" parent="mKbq_NIWzUgNMmpsChsE-1" vertex="1">
          <mxGeometry x="630" y="640" width="230" height="230" as="geometry" />
        </mxCell>
        <mxCell id="761dnnyQ54j-Cl0NHfQN-6126" value="15" style="rounded=0;whiteSpace=wrap;html=1;" parent="mKbq_NIWzUgNMmpsChsE-1" vertex="1">
          <mxGeometry x="860" y="640" width="150" height="150" as="geometry" />
        </mxCell>
        <mxCell id="761dnnyQ54j-Cl0NHfQN-6127" value="8" style="rounded=0;whiteSpace=wrap;html=1;" parent="mKbq_NIWzUgNMmpsChsE-1" vertex="1">
          <mxGeometry x="860" y="790" width="80" height="80" as="geometry" />
        </mxCell>
        <mxCell id="761dnnyQ54j-Cl0NHfQN-6128" value="7" style="rounded=0;whiteSpace=wrap;html=1;" parent="mKbq_NIWzUgNMmpsChsE-1" vertex="1">
          <mxGeometry x="940" y="790" width="70" height="70" as="geometry" />
        </mxCell>
        <mxCell id="761dnnyQ54j-Cl0NHfQN-6129" value="32" style="rounded=0;whiteSpace=wrap;html=1;" parent="mKbq_NIWzUgNMmpsChsE-1" vertex="1">
          <mxGeometry x="940" y="860" width="320" height="320" as="geometry" />
        </mxCell>
        <mxCell id="761dnnyQ54j-Cl0NHfQN-6130" value="31" style="rounded=0;whiteSpace=wrap;html=1;" parent="mKbq_NIWzUgNMmpsChsE-1" vertex="1">
          <mxGeometry x="630" y="870" width="310" height="310" as="geometry" />
        </mxCell>
        <mxCell id="mKbq_NIWzUgNMmpsChsE-2" value="" style="group" vertex="1" connectable="0" parent="mKbq_NIWzUgNMmpsChsE-4">
          <mxGeometry x="5" y="1020" width="1260" height="930" as="geometry" />
        </mxCell>
        <mxCell id="761dnnyQ54j-Cl0NHfQN-6168" value="38" style="rounded=0;whiteSpace=wrap;html=1;" parent="mKbq_NIWzUgNMmpsChsE-2" vertex="1">
          <mxGeometry width="380" height="380" as="geometry" />
        </mxCell>
        <mxCell id="761dnnyQ54j-Cl0NHfQN-6169" value="21" style="rounded=0;whiteSpace=wrap;html=1;" parent="mKbq_NIWzUgNMmpsChsE-2" vertex="1">
          <mxGeometry x="380" width="210" height="210" as="geometry" />
        </mxCell>
        <mxCell id="761dnnyQ54j-Cl0NHfQN-6170" value="25" style="rounded=0;whiteSpace=wrap;html=1;" parent="mKbq_NIWzUgNMmpsChsE-2" vertex="1">
          <mxGeometry x="590" width="250" height="250" as="geometry" />
        </mxCell>
        <mxCell id="761dnnyQ54j-Cl0NHfQN-6171" value="17" style="rounded=0;whiteSpace=wrap;html=1;" parent="mKbq_NIWzUgNMmpsChsE-2" vertex="1">
          <mxGeometry x="380" y="210" width="170" height="170" as="geometry" />
        </mxCell>
        <mxCell id="761dnnyQ54j-Cl0NHfQN-6172" value="4" style="rounded=0;whiteSpace=wrap;html=1;" parent="mKbq_NIWzUgNMmpsChsE-2" vertex="1">
          <mxGeometry x="550" y="210" width="40" height="40" as="geometry" />
        </mxCell>
        <mxCell id="761dnnyQ54j-Cl0NHfQN-6173" value="42" style="rounded=0;whiteSpace=wrap;html=1;" parent="mKbq_NIWzUgNMmpsChsE-2" vertex="1">
          <mxGeometry x="840" width="420" height="420" as="geometry" />
        </mxCell>
        <mxCell id="761dnnyQ54j-Cl0NHfQN-6174" value="29" style="rounded=0;whiteSpace=wrap;html=1;" parent="mKbq_NIWzUgNMmpsChsE-2" vertex="1">
          <mxGeometry x="550" y="250" width="290" height="290" as="geometry" />
        </mxCell>
        <mxCell id="761dnnyQ54j-Cl0NHfQN-6175" value="12" style="rounded=0;whiteSpace=wrap;html=1;" parent="mKbq_NIWzUgNMmpsChsE-2" vertex="1">
          <mxGeometry x="840" y="420" width="120" height="120" as="geometry" />
        </mxCell>
        <mxCell id="761dnnyQ54j-Cl0NHfQN-6176" value="11" style="rounded=0;whiteSpace=wrap;html=1;" parent="mKbq_NIWzUgNMmpsChsE-2" vertex="1">
          <mxGeometry x="960" y="420" width="110" height="110" as="geometry" />
        </mxCell>
        <mxCell id="761dnnyQ54j-Cl0NHfQN-6177" value="19" style="rounded=0;whiteSpace=wrap;html=1;" parent="mKbq_NIWzUgNMmpsChsE-2" vertex="1">
          <mxGeometry x="1070" y="420" width="190" height="190" as="geometry" />
        </mxCell>
        <mxCell id="761dnnyQ54j-Cl0NHfQN-6178" value="3" style="rounded=0;whiteSpace=wrap;html=1;" parent="mKbq_NIWzUgNMmpsChsE-2" vertex="1">
          <mxGeometry x="960" y="530" width="30" height="30" as="geometry" />
        </mxCell>
        <mxCell id="761dnnyQ54j-Cl0NHfQN-6179" value="8" style="rounded=0;whiteSpace=wrap;html=1;" parent="mKbq_NIWzUgNMmpsChsE-2" vertex="1">
          <mxGeometry x="990" y="530" width="80" height="80" as="geometry" />
        </mxCell>
        <mxCell id="761dnnyQ54j-Cl0NHfQN-6180" value="55" style="rounded=0;whiteSpace=wrap;html=1;" parent="mKbq_NIWzUgNMmpsChsE-2" vertex="1">
          <mxGeometry y="380" width="550" height="550" as="geometry" />
        </mxCell>
        <mxCell id="761dnnyQ54j-Cl0NHfQN-6181" value="39" style="rounded=0;whiteSpace=wrap;html=1;" parent="mKbq_NIWzUgNMmpsChsE-2" vertex="1">
          <mxGeometry x="550" y="540" width="390" height="390" as="geometry" />
        </mxCell>
        <mxCell id="761dnnyQ54j-Cl0NHfQN-6182" value="2" style="rounded=0;whiteSpace=wrap;html=1;" parent="mKbq_NIWzUgNMmpsChsE-2" vertex="1">
          <mxGeometry x="940" y="540" width="20" height="20" as="geometry" />
        </mxCell>
        <mxCell id="761dnnyQ54j-Cl0NHfQN-6183" value="5" style="rounded=0;whiteSpace=wrap;html=1;" parent="mKbq_NIWzUgNMmpsChsE-2" vertex="1">
          <mxGeometry x="940" y="560" width="50" height="50" as="geometry" />
        </mxCell>
        <mxCell id="761dnnyQ54j-Cl0NHfQN-6184" value="32" style="rounded=0;whiteSpace=wrap;html=1;" parent="mKbq_NIWzUgNMmpsChsE-2" vertex="1">
          <mxGeometry x="940" y="610" width="320" height="320" as="geometry" />
        </mxCell>
        <mxCell id="mKbq_NIWzUgNMmpsChsE-3" value="" style="group" vertex="1" connectable="0" parent="mKbq_NIWzUgNMmpsChsE-4">
          <mxGeometry width="1260" height="920" as="geometry" />
        </mxCell>
        <mxCell id="761dnnyQ54j-Cl0NHfQN-7649" value="43" style="rounded=0;whiteSpace=wrap;html=1;" parent="mKbq_NIWzUgNMmpsChsE-3" vertex="1">
          <mxGeometry width="430" height="430" as="geometry" />
        </mxCell>
        <mxCell id="761dnnyQ54j-Cl0NHfQN-7650" value="37" style="rounded=0;whiteSpace=wrap;html=1;" parent="mKbq_NIWzUgNMmpsChsE-3" vertex="1">
          <mxGeometry x="430" width="370" height="370" as="geometry" />
        </mxCell>
        <mxCell id="761dnnyQ54j-Cl0NHfQN-7651" value="46" style="rounded=0;whiteSpace=wrap;html=1;" parent="mKbq_NIWzUgNMmpsChsE-3" vertex="1">
          <mxGeometry x="800" width="460" height="460" as="geometry" />
        </mxCell>
        <mxCell id="761dnnyQ54j-Cl0NHfQN-7652" value="6" style="rounded=0;whiteSpace=wrap;html=1;" parent="mKbq_NIWzUgNMmpsChsE-3" vertex="1">
          <mxGeometry x="430" y="370" width="60" height="60" as="geometry" />
        </mxCell>
        <mxCell id="761dnnyQ54j-Cl0NHfQN-7653" value="22" style="rounded=0;whiteSpace=wrap;html=1;" parent="mKbq_NIWzUgNMmpsChsE-3" vertex="1">
          <mxGeometry x="490" y="370" width="220" height="220" as="geometry" />
        </mxCell>
        <mxCell id="761dnnyQ54j-Cl0NHfQN-7654" value="9" style="rounded=0;whiteSpace=wrap;html=1;" parent="mKbq_NIWzUgNMmpsChsE-3" vertex="1">
          <mxGeometry x="710" y="370" width="90" height="90" as="geometry" />
        </mxCell>
        <mxCell id="761dnnyQ54j-Cl0NHfQN-7655" value="49" style="rounded=0;whiteSpace=wrap;html=1;" parent="mKbq_NIWzUgNMmpsChsE-3" vertex="1">
          <mxGeometry y="430" width="490" height="490" as="geometry" />
        </mxCell>
        <mxCell id="761dnnyQ54j-Cl0NHfQN-7656" value="13" style="rounded=0;whiteSpace=wrap;html=1;" parent="mKbq_NIWzUgNMmpsChsE-3" vertex="1">
          <mxGeometry x="710" y="460" width="130" height="130" as="geometry" />
        </mxCell>
        <mxCell id="761dnnyQ54j-Cl0NHfQN-7657" value="15" style="rounded=0;whiteSpace=wrap;html=1;" parent="mKbq_NIWzUgNMmpsChsE-3" vertex="1">
          <mxGeometry x="840" y="460" width="150" height="150" as="geometry" />
        </mxCell>
        <mxCell id="761dnnyQ54j-Cl0NHfQN-7658" value="27" style="rounded=0;whiteSpace=wrap;html=1;" parent="mKbq_NIWzUgNMmpsChsE-3" vertex="1">
          <mxGeometry x="990" y="460" width="270" height="270" as="geometry" />
        </mxCell>
        <mxCell id="761dnnyQ54j-Cl0NHfQN-7659" value="33" style="rounded=0;whiteSpace=wrap;html=1;" parent="mKbq_NIWzUgNMmpsChsE-3" vertex="1">
          <mxGeometry x="490" y="590" width="330" height="330" as="geometry" />
        </mxCell>
        <mxCell id="761dnnyQ54j-Cl0NHfQN-7660" value="2" style="rounded=0;whiteSpace=wrap;html=1;" parent="mKbq_NIWzUgNMmpsChsE-3" vertex="1">
          <mxGeometry x="820" y="590" width="20" height="20" as="geometry" />
        </mxCell>
        <mxCell id="761dnnyQ54j-Cl0NHfQN-7661" value="17" style="rounded=0;whiteSpace=wrap;html=1;" parent="mKbq_NIWzUgNMmpsChsE-3" vertex="1">
          <mxGeometry x="820" y="610" width="170" height="170" as="geometry" />
        </mxCell>
        <mxCell id="761dnnyQ54j-Cl0NHfQN-7662" value="8" style="rounded=0;whiteSpace=wrap;html=1;" parent="mKbq_NIWzUgNMmpsChsE-3" vertex="1">
          <mxGeometry x="990" y="730" width="80" height="80" as="geometry" />
        </mxCell>
        <mxCell id="761dnnyQ54j-Cl0NHfQN-7663" value="14" style="rounded=0;whiteSpace=wrap;html=1;" parent="mKbq_NIWzUgNMmpsChsE-3" vertex="1">
          <mxGeometry x="820" y="780" width="140" height="140" as="geometry" />
        </mxCell>
        <mxCell id="761dnnyQ54j-Cl0NHfQN-7664" value="3" style="rounded=0;whiteSpace=wrap;html=1;" parent="mKbq_NIWzUgNMmpsChsE-3" vertex="1">
          <mxGeometry x="960" y="780" width="30" height="30" as="geometry" />
        </mxCell>
        <mxCell id="761dnnyQ54j-Cl0NHfQN-7665" value="19" style="rounded=0;whiteSpace=wrap;html=1;" parent="mKbq_NIWzUgNMmpsChsE-3" vertex="1">
          <mxGeometry x="1070" y="730" width="190" height="190" as="geometry" />
        </mxCell>
        <mxCell id="761dnnyQ54j-Cl0NHfQN-7666" value="11" style="rounded=0;whiteSpace=wrap;html=1;" parent="mKbq_NIWzUgNMmpsChsE-3" vertex="1">
          <mxGeometry x="960" y="810" width="110" height="110" as="geometry" />
        </mxCell>
      </root>
    </mxGraphModel>
  </diagram>
</mxfile>
